<?xml version="1.0" encoding="UTF-8"?>
<svg id="Layer_2" data-name="Layer 2" xmlns="http://www.w3.org/2000/svg" viewBox="0 0 122.87 122.87">
  <defs>
    <style>
      .cls-1 {
        fill: #fff;
      }
    </style>
  </defs>
  <g id="Layer_1-2" data-name="Layer 1">
    <g>
      <circle cx="61.43" cy="61.43" r="61.43"/>
      <path class="cls-1" d="M78.11,17.28h0c-7.55,0-14.01,5.02-16.68,12.13-2.67-7.11-9.13-12.13-16.68-12.13h0c-9.94,0-18,8.7-18,19.42v49.45c0,10.73,8.06,19.43,18,19.43h0c7.55,0,14.01-5.02,16.68-12.13,2.67,7.11,9.13,12.13,16.68,12.13h0c9.94,0,18-8.7,18-19.43V36.71c0-10.73-8.06-19.42-18-19.42Z"/>
      <g>
        <rect class="cls-1" x="12.97" y="41.84" width="30" height="45.89" rx="15" ry="15" transform="translate(60.14 1.98) rotate(50.47)"/>
        <rect class="cls-1" x="79.9" y="41.84" width="30" height="45.89" rx="15" ry="15" transform="translate(205.27 32.83) rotate(129.53)"/>
      </g>
      <g>
        <circle cx="48.62" cy="53.35" r="5.72"/>
        <circle cx="74.25" cy="53.35" r="5.72"/>
      </g>
    </g>
  </g>
</svg>