<svg width="138" height="138" viewBox="0 0 138 138" fill="none" xmlns="http://www.w3.org/2000/svg">
<path d="M0 61.3333V0H61.3333V61.3333H0ZM15.3333 46H46V15.3333H15.3333V46ZM0 138V76.6667H61.3333V138H0ZM15.3333 122.667H46V92H15.3333V122.667ZM76.6667 61.3333V0H138V61.3333H76.6667ZM92 46H122.667V15.3333H92V46ZM122.667 138V122.667H138V138H122.667ZM76.6667 92V76.6667H92V92H76.6667ZM92 107.333V92H107.333V107.333H92ZM76.6667 122.667V107.333H92V122.667H76.6667ZM92 138V122.667H107.333V138H92ZM107.333 122.667V107.333H122.667V122.667H107.333ZM107.333 92V76.6667H122.667V92H107.333ZM122.667 107.333V92H138V107.333H122.667Z" fill="#212526"/>
</svg>
