<svg width="31" height="32" viewBox="0 0 31 32" fill="none" xmlns="http://www.w3.org/2000/svg">
<path d="M16.2278 25.1429C16.0629 26.2857 14.4133 26.2857 14.2483 25.1429L13.0936 17.1429C13.0066 16.54 13.4743 16 14.0834 16H16.3928C17.0019 16 17.4696 16.54 17.3825 17.1429L16.2278 25.1429Z" fill="#EFEEFF"/>
<path d="M14.2483 6.85714C14.4133 5.71428 16.0629 5.71428 16.2278 6.85714L17.3825 14.8571C17.4695 15.46 17.0019 16 16.3928 16H14.0834C13.4742 16 13.0066 15.46 13.0936 14.8571L14.2483 6.85714Z" fill="#EFEEFF"/>
<path d="M6.85714 16.9898C5.71428 16.8248 5.71428 15.1752 6.85714 15.0103L14.8571 13.8556C15.46 13.7686 16 14.2362 16 14.8453V17.1547C16 17.7639 15.46 18.2315 14.8571 18.1445L6.85714 16.9898Z" fill="#EFEEFF"/>
<path d="M23.619 15.0102C24.7619 15.1752 24.7619 16.8248 23.619 16.9897L15.619 18.1444C15.0161 18.2314 14.4762 17.7638 14.4762 17.1547V14.8453C14.4762 14.2361 15.0161 13.7685 15.619 13.8555L23.619 15.0102Z" fill="#EFEEFF"/>
</svg>
