<?xml version="1.0" encoding="UTF-8"?>
<svg id="Layer_2" data-name="Layer 2" xmlns="http://www.w3.org/2000/svg" viewBox="0 0 102.39 97.96">
  <defs>
    <style>
      .cls-1 {
        fill: #fff;
      }
    </style>
  </defs>
  <g id="Layer_1-2" data-name="Layer 1">
    <g>
      <path class="cls-1" d="M39.72,26.93c.51-.29,1.09-.61,1.51-.85,.53-.31,1.06-.62,1.59-.92,6.12-3.49,12.69-6.54,19.57-8.37,5.9-1.57,12.98-3.07,18.88-.77,3.2,1.25,5.55,3.83,4.69,7.45-.9,3.78-3.03,6.97-4.74,10.38-.18,.36-.33,.7-.55,1.18,1.9-.07,3.63-.27,5.34-.19,3.49,.17,6.65,1.19,8.9,4.11,4.65,6.05-1.8,16.52-5.26,21.71-4.7,7.05-10.96,12.99-17.77,17.98-12.84,9.41-29.83,18.07-45.97,19.24-11.16,.81-22.26-5.53-25.17-16.86-.93-3.63-.9-7.45-.46-11.17,.59-4.95,1.8-9.81,3.42-14.52,4.67-13.54,12.96-27.27,24.29-36.25,1.51-1.2,3.49-1.98,5.38-2.32,3.97-.71,4.82,2.18,5.5,5.39,.33,1.56,.58,3.09,.82,4.76Zm14.66,30.93c2.78-3.46,5.72-7,8.53-10.64,2.47-3.21,4.64-6.62,6.07-10.43,.29-.79,.56-1.62,.48-2.46-.21-2.06-2.49-3.33-4.56-3.34-6.04-.04-11.86,4.17-16.55,7.47-3.56,2.51-6.81,5.45-10.19,8.21-1.95,1.6-3.88,3.22-5.82,4.82,.39-3.16,.78-6.32,1.18-9.49,.36-2.92,.71-5.96-.24-8.74-.16-.47-.37-.94-.76-1.25-3.42-2.65-11.46,12.76-12.81,15.17-2.91,5.21-5.41,10.64-7.46,16.24-1.97,5.37-3.56,11.1-1.55,16.73,1.74,4.87,6.27,7.62,11.26,8.14,6.05,.63,12.44-1.85,17.84-4.29,8.92-4.04,17.53-9.32,24.24-16.56,1.69-1.83,3.86-4.32,3.69-6.99-.1-1.61-1.3-2.61-2.73-3.16-2.13-.83-4.38-.63-6.58-.31-1.45,.21-2.86,.62-4.03,.88Z"/>
      <path class="cls-1" d="M43.13,18.13c-.09,0-.17-.02-.26-.03-.85-.16-1.43-.91-1.48-1.75-.04-.63,.16-1.25,.39-1.83,1.37-3.5,3.95-6.34,6.65-8.87,1.68-1.58,3.5-3.15,5.7-3.96,1.84-.68,5.12-1.25,5.91,1.19,.35,1.08,.07,2.27-.39,3.31-1.32,3.01-3.95,5.16-6.46,7.15-2.56,2.02-5.43,3.77-8.61,4.61-.47,.12-.96,.23-1.45,.19Z"/>
      <path class="cls-1" d="M90.88,30.41c.04-.27,.1-.52,.17-.75,.63-2.26,1.47-4.49,2.76-6.46,1.01-1.54,2.36-3.06,3.94-4.02,1.8-1.09,4.4-.86,4.63,1.72,.08,.94-.22,1.88-.56,2.77-.86,2.28-2,4.48-3.51,6.4-1.17,1.48-3.64,4.4-5.81,3.94-1.68-.35-1.85-2.14-1.61-3.59Z"/>
      <path class="cls-1" d="M90.04,0c.84,.02,1.62,.29,1.85,1.24,.25,1.03-.39,2.26-1.03,3.02-1.22,1.45-2.91,2.44-4.62,3.25-2.66,1.26-5.49,2.18-8.39,2.72-1.19,.23-2.53,0-2.63-1.49-.05-.78,.32-1.53,.79-2.16,.91-1.24,2.16-2.18,3.46-2.98C82.42,1.79,86.48-.09,90.04,0Z"/>
      <path class="cls-1" d="M69.1,6.49c1.05,.16,1.96,.85,1.77,2.13-.11,.71-.54,1.33-1.02,1.86-1.13,1.23-2.74,2.12-4.4,2.02-.46-.03-.93-.13-1.32-.39s-.68-.68-.69-1.14c0-.31,.1-.62,.24-.9,.78-1.68,2.32-2.98,4.1-3.49,.42-.12,.89-.15,1.33-.08Z"/>
      <path class="cls-1" d="M85.23,33.03c-.95-.14-1.12-.9-.76-1.69,.37-.8,.87-1.48,1.74-1.79,.43-.15,.92-.15,1.3,.1,1.56,1.02-.98,3.57-2.28,3.38Z"/>
      <path class="cls-1" d="M31.54,76.52c-.33,3.89-3.62,8-7.87,8.99-3.65,.85-8.38-1.22-9.86-5.03-2.22-5.71,1.26-11.74,6.18-13.52,6.46-2.34,12.57,2.84,11.55,9.56Z"/>
    </g>
  </g>
</svg>