<?xml version="1.0" encoding="UTF-8"?>
<svg id="Layer_2" data-name="Layer 2" xmlns="http://www.w3.org/2000/svg" viewBox="0 0 102.39 97.96">
  <defs>
    <style>
      .cls-1 {
        fill: #fff;
      }
    </style>
  </defs>
  <g id="Layer_1-2" data-name="Layer 1">
    <g>
      <path class="cls-1" d="M86.03,34.85c-1.72-.08-3.45,.11-5.34,.19,.22-.48,.37-.83,.55-1.18,1.7-3.41,3.84-6.6,4.74-10.38,.86-3.61-1.49-6.2-4.69-7.45-5.9-2.3-12.98-.8-18.88,.77-6.88,1.83-13.45,4.88-19.57,8.37-.53,.3-1.06,.61-1.59,.92-.42,.25-1.01,.57-1.51,.85-.25-1.67-.49-3.2-.82-4.76-.68-3.21-1.53-6.1-5.5-5.39-1.89,.34-3.87,1.12-5.38,2.32C16.68,28.07,8.4,41.81,3.72,55.35c-1.62,4.71-2.83,9.57-3.42,14.52-.44,3.72-.48,7.54,.46,11.17,2.91,11.32,14.01,17.67,25.17,16.86,16.14-1.17,33.13-9.83,45.97-19.24,6.81-4.99,13.07-10.93,17.77-17.98,3.46-5.19,9.91-15.66,5.26-21.71-2.25-2.93-5.4-3.95-8.9-4.11Zm-17.05,1.95c-1.42,3.81-3.6,7.22-6.07,10.43-2.81,3.64-5.74,7.18-8.53,10.64,1.16-.26,2.58-.67,4.03-.88,2.2-.32,4.45-.52,6.58,.31,1.42,.55,2.62,1.56,2.73,3.16,.17,2.67-2,5.17-3.69,6.99-6.71,7.24-15.33,12.52-24.24,16.56-5.4,2.45-11.79,4.93-17.84,4.29-4.99-.52-9.52-3.27-11.26-8.14-2.01-5.62-.42-11.36,1.55-16.73,2.05-5.6,4.55-11.04,7.46-16.24,1.35-2.41,9.38-17.82,12.81-15.17,.39,.3,.6,.78,.76,1.25,.96,2.78,.61,5.82,.24,8.74-.39,3.16-.78,6.32-1.18,9.49,1.94-1.6,3.87-3.23,5.82-4.82,3.37-2.77,6.63-5.71,10.19-8.21,4.69-3.3,10.51-7.51,16.55-7.47,2.07,.01,4.35,1.29,4.56,3.34,.09,.84-.18,1.67-.48,2.46Z"/>
      <path class="cls-1" d="M42.87,18.09c.09,.02,.17,.03,.26,.03,.48,.04,.97-.07,1.45-.19,3.18-.84,6.05-2.58,8.61-4.61,2.52-1.99,5.14-4.14,6.46-7.15,.46-1.04,.74-2.23,.39-3.31-.79-2.44-4.08-1.87-5.91-1.19-2.19,.81-4.01,2.38-5.7,3.96-2.7,2.54-5.29,5.37-6.65,8.87-.23,.59-.42,1.2-.39,1.83,.05,.84,.64,1.59,1.48,1.75Z"/>
      <path class="cls-1" d="M97.74,19.18c-1.58,.96-2.93,2.48-3.94,4.02-1.29,1.97-2.12,4.2-2.76,6.46-.06,.23-.12,.49-.17,.75-.24,1.44-.07,3.23,1.61,3.59,2.17,.46,4.63-2.46,5.81-3.94,1.52-1.91,2.65-4.12,3.51-6.4,.34-.89,.64-1.82,.56-2.77-.23-2.57-2.84-2.81-4.63-1.72Z"/>
      <path class="cls-1" d="M77.85,10.24c2.9-.55,5.72-1.47,8.39-2.72,1.72-.81,3.4-1.79,4.62-3.25,.64-.77,1.28-1.99,1.03-3.02-.23-.95-1.01-1.22-1.85-1.24-3.55-.09-7.61,1.79-10.57,3.61-1.3,.8-2.56,1.74-3.46,2.98-.46,.63-.84,1.38-.79,2.16,.1,1.48,1.44,1.71,2.63,1.49Z"/>
      <path class="cls-1" d="M64.12,12.11c.39,.26,.85,.36,1.32,.39,1.67,.09,3.27-.8,4.4-2.02,.49-.53,.92-1.15,1.02-1.86,.19-1.28-.72-1.97-1.77-2.13-.44-.07-.91-.04-1.33,.08-1.78,.5-3.32,1.81-4.1,3.49-.13,.29-.25,.59-.24,.9,.01,.46,.31,.89,.69,1.14Z"/>
      <path class="cls-1" d="M86.2,29.54c-.86,.3-1.37,.99-1.74,1.79-.36,.79-.19,1.56,.76,1.69,1.29,.19,3.84-2.36,2.28-3.38-.38-.25-.88-.25-1.3-.1Z"/>
      <path class="cls-1" d="M19.99,66.96c-4.92,1.78-8.39,7.81-6.18,13.52,1.48,3.81,6.21,5.88,9.86,5.03,4.25-.99,7.53-5.1,7.87-8.99,1.01-6.72-5.09-11.9-11.55-9.56Z"/>
    </g>
  </g>
</svg>