<?xml version="1.0" encoding="UTF-8"?>
<svg id="Layer_2" data-name="Layer 2" xmlns="http://www.w3.org/2000/svg" viewBox="0 0 106.98 104.05">
  <defs>
    <style>
      .cls-1 {
        fill: #fff;
      }
    </style>
  </defs>
  <g id="Layer_1-2" data-name="Layer 1">
    <g>
      <path class="cls-1" d="M89.07,42.58c-2.78-.81-5.54,.29-8.2,1.19-1.42,.48-2.83,.98-4.25,1.46,.18-.06,.45-.56,.56-.71,.2-.26,.41-.52,.6-.79,.4-.53,.78-1.07,1.15-1.62,.74-1.1,1.42-2.23,2.01-3.42,.11-.23,.22-.46,.33-.69,1.71-3.72,3.34-9.63-.5-12.64-1.89-1.48-3.93-2.33-6.29-2.86-3.89-.87-7.69-.74-11.51,.1-2.07,.45-4.1,1.08-6.42,1.71,.72-.92,1.31-1.65,1.84-2.39,1.02-1.42,1.68-2.52,2.35-4.26,.82-2.13,1.1-4.23,.44-6.48-1.12-3.77-3.5-4.72-6.5-4.39-3.27,.37-5.47,1.55-7.94,2.87-12.06,6.44-21.14,17.64-28.38,28.97-4.02,6.29-7.58,12.92-10.13,19.95-2.37,6.53-4.44,14.03-3.44,20.99,.05,.32,.1,.63,.16,.95,.18,.94,.41,1.88,.7,2.79,.39,1.24,.89,2.45,1.5,3.6,3.11,5.93,9.03,10.03,15.39,11.79,7.42,2.05,16.6-.36,23.6-2.9,11.28-4.08,22.19-9.94,31.77-17.11,7.27-5.44,13.53-12.14,16.17-21.07,.98-3.32,1.14-6.73,0-10.11-.84-2.51-2.62-4.26-5-4.95Zm-6.58,10.48c-.27,1.63-1.14,3.08-2.05,4.46-3.85,5.86-8.67,11.08-14.03,15.61-6.65,5.62-14.2,10.17-22.28,13.41-7.72,3.1-17.43,6.84-25.14,1.92-3.77-2.41-5.06-6.57-4.93-10.86,.26-8.36,3.32-17.24,6.61-24.84,2.24-5.16,4.98-10.11,8.28-14.67,2.99-4.13,6.45-8.51,10.82-11.23,.95-.59,2-1.11,3.12-1.17,.47-.02,.97,.04,1.35,.32,.7,.51,.78,1.5,.76,2.37-.06,3.44-.71,6.79-1.56,10.12-.78,3.08-1.81,6.09-2.72,9.14-.39,1.31-.6,2.64-.99,3.95-.19,.65-.16,.61-.47,1.9,1.05-.8,2.2-1.44,3.19-2.22,3.88-3.05,8.12-5.62,12.62-7.64,2.49-1.12,9.92-5.3,10.41-.05,.09,.97-.15,1.94-.43,2.87-.99,3.28-2.53,6.37-4.31,9.29-.87,1.43-1.71,2.67-2.6,4.08-.82,1.3-1.35,1.85-2.8,4.19,1.95-1.44,4.01-2.73,5.92-4,1.94-1.29,3.92-2.53,5.96-3.66,4.11-2.28,8.5-4.14,13.14-5.02,.67-.13,1.47-.18,1.9,.35,.3,.37,.29,.9,.21,1.37Z"/>
      <path class="cls-1" d="M96.92,3.81c-1.04-.37-2.25-.32-3.32-.12-1.24,.23-2.41,.7-3.55,1.24-.97,.46-1.93,.98-2.75,1.67-1.03,.87-2.27,2.37-1.69,3.81,.21,.51,.64,.91,1.14,1.15,.54,.26,1.15,.35,1.76,.34,.55,0,1.09-.1,1.6-.21,.99-.23,1.95-.61,2.88-1.02,1.39-.61,2.77-1.28,3.95-2.24,.45-.37,.88-.78,1.18-1.28,.79-1.31,.24-2.83-1.21-3.35Z"/>
      <path class="cls-1" d="M63.09,9.47c.63-.02,1.19-.36,1.73-.69,1.98-1.2,4-2.34,5.88-3.69,.8-.58,1.68-1.14,2.26-1.96,.56-.79,.85-2.02-.15-2.55-.92-.49-1.97-.66-3-.55-2.03,.22-3.93,1.39-5.35,2.79-1.11,1.1-2.23,2.5-2.86,3.94-.12,.28-.2,.54-.22,.8-.05,.93,.75,1.95,1.71,1.91Z"/>
      <path class="cls-1" d="M106.78,16.02c-.29-1.08-1.1-1.65-2.21-1.31-.98,.3-1.81,1-2.4,1.84-.59,.84-.96,1.81-1.24,2.8-.32,1.13-.54,2.3-.5,3.48,0,.06,0,.13,0,.19,.07,1.23,.46,3.4,1.85,3.66,1.64,.31,2.54-2.14,3.03-3.28,.5-1.18,1.03-2.35,1.35-3.59s.43-2.56,.11-3.79Z"/>
      <path class="cls-1" d="M70.94,11.66c-.06,.44-.08,.95,.31,1.25,.23,.18,.52,.25,.81,.28,.55,.05,1.13-.03,1.68-.13,1.24-.22,2.37-.96,2.96-2.1,.08-.16,.14-.32,.17-.47,.08-.47-.08-.9-.53-1.23-.31-.22-.7-.32-1.08-.36-.27-.03-.54-.03-.8-.01-1.48,.11-3.28,1.19-3.51,2.78Z"/>
      <path class="cls-1" d="M36.89,102.34c-1.7-.34-3.38-.03-5.07,.08-.54,.03-1.04,.13-1.13,.76-.06,.4,.39,.57,.7,.65,.51,.13,1.03,.17,1.55,.2,.88,.04,1.78,.03,2.65-.13,.47-.08,2.05-.31,1.96-1.04,0,0,0-.02,0-.03-.06-.28-.4-.44-.65-.5Z"/>
      <path class="cls-1" d="M42.22,98.94c-.41,.02-.82,.04-1.23,.06-.7,.03-1.41,.07-2.1,.17-.56,.08-1.23,.16-1.68,.54-.1,.09-.19,.19-.24,.32-.01,.03-.02,.06-.02,.09-.02,.1,0,.21,.05,.3,.22,.35,.86,.34,1.21,.34,.36,0,.72-.04,1.08-.05,.67-.02,1.34-.08,2.01-.15,.31-.03,.62-.07,.93-.1,.24-.03,.54-.01,.74-.18,.13-.1,.19-.27,.22-.43,.03-.22-.01-.46-.14-.64-.2-.27-.51-.28-.82-.27Z"/>
      <path class="cls-1" d="M.91,68.72c-.37,.28-.53,.82-.63,1.25-.1,.42-.14,.85-.2,1.28-.04,.31-.1,.61-.08,.92,.02,.35,.18,.9,.6,.95,.4,.05,.8-.5,.87-.82,.18-.76,.19-1.58,.26-2.36,.02-.18,.03-.36,.02-.54,0-.07-.01-.14-.03-.21-.09-.4-.42-.76-.82-.47Z"/>
      <path class="cls-1" d="M100.84,27.32c-.28-.15-.6-.2-.87-.1-.36,.15-.67,.49-.86,.82-.13,.22-.21,.47-.18,.73,.05,.37,.34,.69,.69,.83,.48,.2,1.11,.16,1.51-.2,.2-.18,.33-.42,.4-.68,.06-.2,.08-.41,.02-.6-.09-.32-.37-.63-.71-.81Z"/>
      <path class="cls-1" d="M69.21,12.39c-.08,.03-.16,.07-.24,.11-.31,.17-.68,.46-.55,.86,.06,.17,.17,.3,.3,.43,.17,.16,.35,.27,.55,.3,.16,.02,.32,0,.49-.08,.37-.18,.73-.62,.55-1.06-.06-.14-.17-.26-.28-.36-.25-.23-.5-.34-.83-.2Z"/>
      <path class="cls-1" d="M27.46,69.46c-4.16,.32-6.4,1.85-7.97,4.14-1.2,1.75-1.92,3.77-2.11,6.01-.3,3.44,.96,6.24,3.61,8.03,3.45,2.33,6.54,2.06,10.18-.73,2.8-2.14,4.34-4.96,4.23-8.5-.07-2.34-.58-4.64-2.39-6.35-1.88-1.77-4.09-2.81-5.54-2.6Z"/>
    </g>
  </g>
</svg>