<?xml version="1.0" encoding="UTF-8"?>
<svg id="Layer_2" data-name="Layer 2" xmlns="http://www.w3.org/2000/svg" viewBox="0 0 107.15 105.37">
  <defs>
    <style>
      .cls-1 {
        fill: #fff;
      }
    </style>
  </defs>
  <g id="Layer_1-2" data-name="Layer 1">
    <g>
      <path class="cls-1" d="M94.95,32.94c-2.96-.67-5.83,1.18-8.32,2.52-2.86,1.53-5.59,3.33-8.51,4.75-.66,.32-.99,.45-1.54,.7-.01-.39-.01-.49-.03-.71-.04-.59-.16-4.53-1.11-6.62-1.75-3.85-4.57-5.32-8.66-4.95-1.73,.16-3.47,.54-5.14,1.05-2.01,.62-4,1.37-5.9,2.27-2.62,1.23-5.15,2.65-7.81,4.04,.39-1.1,.68-2.01,1.02-2.9,.99-2.61,1.56-5.23,1.48-8.1-.09-2.99-2.48-5.15-5.46-5.04-1.58,.06-3.08,.64-4.51,1.32-4.23,2.01-8,4.86-11.5,7.96-8.57,7.6-15.25,17.22-19.64,27.79-3.1,7.49-6.31,16.66-5.19,24.86,1.38,10.05,10.3,18.69,20.37,19.72,7.06,.72,14.66-1.89,21.29-4.09,6.83-2.27,13.46-5.19,19.68-8.83,9.66-5.64,18.82-13.07,25.39-22.2,4.84-6.71,8.28-14.52,9.25-22.73,.49-4.1-.34-9.73-5.17-10.82Zm-8.3,22.89c-4.13,7.42-9.84,13.56-16.48,18.79-3.5,2.76-7.17,5.28-10.9,7.71-8.4,5.46-17.61,10.36-27.79,11.2-5.29,.44-10.26-.55-14.39-4.04-3.94-3.33-5.29-9.2-5.08-14.14,.26-6.26,2.48-12.91,4.76-18.68,2.29-5.81,5.28-11.35,8.92-16.43,1.42-1.98,2.96-3.9,4.84-5.46,1.98-1.63,5.84-4,8.48-2.67,3.85,1.95,.63,8.8-.45,11.56-.76,1.95-1.46,3.91-2.11,5.9-.57,1.75-1.42,3.86-1.67,5.81,1-.94,3.26-2.65,3.85-3.08,1.17-.85,2.39-1.67,3.63-2.43,2.7-1.63,5.66-2.84,8.74-3.56,2.96-.69,6.36,.17,7.52,3.25,.49,1.3,.54,2.72,.43,4.1-.21,2.78-1.03,5.52-2.38,7.96,2.23-1.1,4.27-2.5,6.35-3.85,3.46-2.24,6.95-4.43,10.46-6.59,3.72-2.29,7.52-5.1,11.55-6.79,1.04-.44,2.26-.61,3.27-.11,3.96,1.97-.18,9.07-1.56,11.54Z"/>
      <path class="cls-1" d="M34.28,78c-.6-1.57-1.6-2.97-2.97-3.99-1.46-1.11-3.31-1.78-5.53-1.76,0,0,0,0,0,0,0,0-.02,0-.03,0-5.28-.01-9.15,3.67-9.36,9.08-.17,4.41,2.71,8.63,7.66,9.4,.76,.14,1.57,.22,2.44,.21,1.25-.02,2.58-.49,3.81-1.27,1.54-.85,2.8-2.11,3.62-3.68,.78-1.29,1.24-2.72,1.19-4.11-.05-1.34-.33-2.66-.82-3.88Z"/>
      <path class="cls-1" d="M66.39,7.12c.47,.12,.97,.08,1.45-.01,.18-.04,.35-.08,.53-.13,2.63-.72,4.81-2.31,6.9-4.01,.43-.35,.87-.73,1.05-1.25,.61-1.82-2.1-1.83-3.14-1.65-1.38,.24-2.73,.62-3.99,1.24-1.48,.74-3.75,2.31-4.1,4.07-.17,.83,.55,1.55,1.3,1.74Z"/>
      <path class="cls-1" d="M97.81,7.84c.51,0,1-.17,1.48-.34,2.02-.71,4.05-1.42,6.07-2.14,.46-.16,.94-.33,1.31-.66,.66-.58,.62-1.43,.03-2.04-.55-.57-1.37-.71-2.13-.72-.12,0-.24,0-.37,0-2.7,.06-6.06,1.35-7.5,3.72-.62,1.03-.23,2.17,1.11,2.17Z"/>
      <path class="cls-1" d="M106.46,12.3c-1.58-1.88-2.87,1.99-3.17,2.97-.58,1.91-.81,3.94-.64,5.93,.09,1.05,.99,2.06,2.04,1.17,1.06-.91,1.67-3.07,2.03-4.38,.29-1.04,.44-2.12,.39-3.19-.02-.45-.07-.9-.17-1.34-.09-.41-.22-.83-.49-1.15Z"/>
      <path class="cls-1" d="M75.08,11.26c-.28,.7,.13,.96,.74,1.04,1.19,.16,3.99-1.1,3.18-2.58-.75-1.37-3.38,.17-3.92,1.54Z"/>
      <path class="cls-1" d="M92.8,30.6c.87-.58,1.28-2.94,.16-3.15-1.28-.24-1.62,1.42-1.36,2.58,.14,.61,.54,1.01,1.19,.57Z"/>
      <path class="cls-1" d="M38.93,104.17c-.11-.06-.23-.07-.35-.08-1.05-.06-2.13,.06-3.11,.47-.07,.03-.16,.07-.24,.12-.09,.06-.16,.15-.16,.25,0,.09,.07,.17,.15,.22,.52,.37,1.35,.16,1.93,.06,.48-.09,.97-.17,1.45-.26,.12-.02,.24-.04,.35-.11,.27-.16,.26-.53,0-.68Z"/>
      <path class="cls-1" d="M.8,68.34c-.21,.24-.29,.59-.37,.89-.12,.43-.23,.86-.35,1.29-.05,.19-.1,.38-.08,.57,.02,.23,.21,.48,.43,.57,.18,.08,.32,.02,.44-.09,.16-.15,.26-.4,.33-.57,.19-.55,.22-1.13,.32-1.7,.03-.2,.08-.4,.05-.6-.05-.37-.47-.69-.77-.34Z"/>
      <path class="cls-1" d="M45.22,100.55c-.36,.09-.72,.19-1.07,.32-.26,.1-.92,.4-.68,.79,.2,.32,.89,.09,1.16-.02,.43-.18,.84-.4,1.26-.6,.09-.04,.18-.09,.25-.16,.09-.1,.14-.26,.01-.35-.27-.19-.67-.05-.95,.01Z"/>
    </g>
  </g>
</svg>