<?xml version="1.0" encoding="UTF-8"?>
<svg id="Layer_2" data-name="Layer 2" xmlns="http://www.w3.org/2000/svg" viewBox="0 0 107.56 103.56">
  <defs>
    <style>
      .cls-1 {
        fill: #fff;
      }
    </style>
  </defs>
  <g id="Layer_1-2" data-name="Layer 1">
    <g>
      <path class="cls-1" d="M86.03,40.45c-1.72-.08-3.45,.11-5.34,.19,.22-.48,.37-.83,.55-1.18,1.7-3.41,3.84-6.6,4.74-10.38,.86-3.61-1.49-6.2-4.69-7.45-5.9-2.3-12.98-.8-18.88,.77-6.88,1.83-13.45,4.88-19.57,8.37-.53,.3-1.06,.61-1.59,.92-.42,.25-1.01,.57-1.51,.85-.25-1.67-.49-3.2-.82-4.76-.68-3.21-1.53-6.1-5.5-5.39-1.89,.34-3.87,1.12-5.38,2.32C16.68,33.67,8.4,47.41,3.72,60.95c-1.62,4.71-2.83,9.57-3.42,14.52-.44,3.72-.48,7.54,.46,11.17,2.91,11.32,14.01,17.67,25.17,16.86,16.14-1.17,33.13-9.83,45.97-19.24,6.81-4.99,13.07-10.93,17.77-17.98,3.46-5.19,9.91-15.66,5.26-21.71-2.25-2.93-5.4-3.95-8.9-4.11Zm-17.05,1.95c-1.42,3.81-3.6,7.22-6.07,10.43-2.81,3.64-5.74,7.18-8.53,10.64,1.16-.26,2.58-.67,4.03-.88,2.2-.32,4.45-.52,6.58,.31,1.42,.55,2.62,1.56,2.73,3.16,.17,2.67-2,5.17-3.69,6.99-6.71,7.24-15.33,12.52-24.24,16.56-5.4,2.45-11.79,4.93-17.84,4.29-4.99-.52-9.52-3.27-11.26-8.14-2.01-5.62-.42-11.36,1.55-16.73,2.05-5.6,4.55-11.04,7.46-16.24,1.35-2.41,9.38-17.82,12.81-15.17,.39,.3,.6,.78,.76,1.25,.96,2.78,.61,5.82,.24,8.74l-1.18,9.49c1.94-1.6,3.87-3.23,5.82-4.82,3.37-2.77,6.63-5.71,10.19-8.21,4.69-3.3,10.51-7.51,16.55-7.47,2.07,.01,4.35,1.29,4.56,3.34,.09,.84-.18,1.67-.48,2.46Z"/>
      <path class="cls-1" d="M19.99,72.56c-4.92,1.78-8.39,7.81-6.18,13.52,1.48,3.81,6.21,5.88,9.86,5.03,4.25-.99,7.53-5.1,7.87-8.99,1.01-6.72-5.09-11.9-11.55-9.56Z"/>
      <path class="cls-1" d="M77.7,1.03c.44-.05,1.23-.66,.58-.95-.65-.29-1.16,.31-1.16,.31-.2,.29,.14,.69,.58,.64Z"/>
      <path class="cls-1" d="M101.57,9.24c-.28,.08-.55,.7,0,.89,.66,.24,.61-.42,.56-.58-.05-.16-.32-.38-.56-.31Z"/>
      <path class="cls-1" d="M107.36,2.92c-.35-.14-.88,.14-1.11,.32-.37,.29,.16,.81,.75,.5,.59-.31,.71-.68,.36-.82Z"/>
    </g>
  </g>
</svg>