<?xml version="1.0" encoding="UTF-8"?>
<svg id="Layer_2" data-name="Layer 2" xmlns="http://www.w3.org/2000/svg" viewBox="0 0 89.95 92.83">
  <defs>
    <style>
      .cls-1 {
        fill: #fff;
      }
    </style>
  </defs>
  <g id="Layer_1-2" data-name="Layer 1">
    <g>
      <path class="cls-1" d="M88.23,39.24c-1.13-1.74-2.72-2.92-4.92-3.23-2.65-.38-4.98,.72-7.4,1.38-1.33,.36-2.63,.99-4.07,1.36,1.31-2.06,2.28-3.14,3.99-6.06,1.32-2.26,1.83-3.36,2.42-6.16,.37-1.77,.06-3.95-.73-5.63-.69-1.46-2.17-2.49-3.57-3.21-4.3-2.25-9.17-2.51-13.91-1.87-1.34,.18-2.67,.52-3.98,.86-.67,.17-1.33,.35-2,.53-.23,.06-1.59,.26-1.67,.44,2.04-4.42,5.53-9.11,3.48-14.15-1.08-2.66-3.78-3.86-6.56-3.38-2.1,.36-4.17,1.36-6.05,2.33-4.4,2.27-8.33,5.4-12.06,8.62-3.69,3.19-7.15,6.64-10.35,10.31-6.56,7.54-11.95,16.11-15.83,25.32C2.05,53.76-.09,61.32,0,69.09c.07,6.05,2.04,12.34,6.13,16.9,10.36,11.55,28.43,6.08,40.63,.99,7.89-3.29,15.59-7.13,22.56-12.07,8.98-6.36,19.9-16.1,20.59-27.89,.16-2.8-.16-5.44-1.68-7.78Zm-10.62,7.15c-1.12,4.79-3.22,7.58-5.81,10.78-2.99,3.69-6.56,6.88-10.25,9.85-6.72,5.42-14.35,9.66-22.24,13.12-7.14,3.13-16.83,6.79-24.17,2.48-5.41-3.18-6.44-8.21-5.61-14.1,1.26-8.94,4.3-17.61,8.11-25.77,3.53-7.57,8.12-15.05,14.66-20.39,1.74-1.42,8.57-5.81,7.96-.64-1.04,8.85-3.75,17.15-6.14,25.68,2.67-1.96,4.98-3.89,7.52-5.47,4.35-2.72,8.92-5.49,13.85-6.98,1.55-.47,4.03-.65,4.85,1.14,.27,.59,.35,1.28,.22,1.92-1.07,5.25-3.91,9.2-6.07,13.43-1.1,2.15-1.97,3.62-3.37,5.72,1.02-.73,1.99-1.54,3.06-2.19,5.55-3.38,10.99-6.72,17.12-8.99,1.2-.44,7.03-2.62,6.32,.42Z"/>
      <path class="cls-1" d="M17.71,64.3c-2.63,1.59-4.04,4.01-4.96,6.7-1.22,3.57,.18,7.81,3.24,10.1,1.63,1.21,3.57,2.07,5.68,1.46,1.45-.42,2.9-1.01,4.16-1.83,2.94-1.9,4.51-4.69,4.76-8.36-.17-.96-.35-2.06-.55-3.16-.95-5.18-7.74-7.69-12.32-4.92Z"/>
    </g>
  </g>
</svg>