<?xml version="1.0" encoding="UTF-8"?>
<svg id="Layer_2" data-name="Layer 2" xmlns="http://www.w3.org/2000/svg" viewBox="0 0 94.2 79.21">
  <defs>
    <style>
      .cls-1 {
        fill: #fff;
      }
    </style>
  </defs>
  <g id="Layer_1-2" data-name="Layer 1">
    <g>
      <path class="cls-1" d="M84.77,21.19c-1.42,.25-2.81,.7-4.32,1.08,1.45-3.2,3.23-6.08,3.62-9.5,.39-3.38,.37-6.62-2.87-8.76-4.8-3.18-10.64-2.44-15.88-.76-9.55,3.06-18.28,8.75-26.55,14.28,.04-1.51,.03-2.05,.04-2.36,.01-.98,0-1.96-.02-2.94-.05-1.96-.19-3.92-.41-5.87-.28-2.46-1.03-5.43-3.73-6.22-1.72-.5-3.45,.39-4.83,1.35C19.55,8.64,12.48,18.45,7.29,29.7c-3.09,6.69-5.43,13.74-6.78,20.99-1.36,7.31-.06,14.66,4.77,20.5,8.23,9.96,20.47,9.09,31.73,5.65,1.15-.35,2.3-.72,3.45-1.1,16.91-5.64,32.69-15.04,44.21-28.82,4.54-5.43,8.45-11.69,9.46-18.69,.78-5.38-4.73-7.84-9.36-7.04Zm-13.37,18.56c-.41,1.21-1.22,2.25-2.06,3.21-2.49,2.85-5.41,5.31-8.4,7.63-8.97,6.98-18.7,13-29.08,17.66-2.29,1.03-4.63,2-7.11,2.44-3.71,.66-7.11-.18-10.05-2.52-4.55-3.63-6.01-9.15-5.39-14.76,1.18-10.74,6.43-21.22,12.68-29.88,1.29-1.79,3.23-3.56,5.18-4.59,1.56-.83,3.66-1.02,4.99,.16,.7,.62,1.08,1.52,1.34,2.42,1,3.55,.43,7.46-.1,11.05-.16,1.07-.33,2.1-.73,3.38,1.56-1.4,5.92-2.81,7.1-3.08,2.29-.52,4.96-.89,7.25-.25,2.76,.77,3.62,2.58,3.96,5.11,.08,.59,.1,1.35,.1,2.05,.75-.31,.82-.38,1.09-.5,5.12-2.28,10.47-5.44,16.3-4.39,2.51,.45,3.78,2.33,2.92,4.86Z"/>
      <path class="cls-1" d="M21.5,50.05c-2.89,.4-5.33,1.76-6.92,4.43-1.04,1.75-1.92,3.51-1.91,5.58,0,.53,.13,1.05,.2,1.58,.2,1.52,.84,2.81,1.71,4.12,1.69,2.55,5.63,3.54,8.06,3.02,5.32-1.13,8.86-6.41,8.02-11.84-.69-4.48-5.12-7.45-9.17-6.89Z"/>
    </g>
  </g>
</svg>